<svg width="25" height="25" viewBox="0 0 25 25" fill="none" xmlns="http://www.w3.org/2000/svg">
<path fill-rule="evenodd" clip-rule="evenodd" d="M9.79965 19.5993C15.2118 19.5993 19.5993 15.2118 19.5993 9.79965C19.5993 4.38746 15.2118 0 9.79965 0C4.38746 0 0 4.38746 0 9.79965C0 15.2118 4.38746 19.5993 9.79965 19.5993ZM9.84321 16.4634C13.5476 16.4634 16.5505 13.4605 16.5505 9.7561C16.5505 6.05175 13.5476 3.04878 9.84321 3.04878C6.13886 3.04878 3.13589 6.05175 3.13589 9.7561C3.13589 13.4605 6.13886 16.4634 9.84321 16.4634Z" fill="black"/>
<path d="M24.4379 22.2553L17.0482 14.8656C16.7761 14.5934 16.3349 14.5934 16.0627 14.8656L14.8656 16.0627C14.5935 16.3349 14.5935 16.7761 14.8656 17.0482L22.2553 24.4379C22.5274 24.7101 22.9687 24.7101 23.2408 24.4379L24.4379 23.2408C24.7101 22.9687 24.7101 22.5274 24.4379 22.2553Z" fill="black"/>
</svg>
